<svg width="241" height="57" viewBox="0 0 241 57" fill="none" xmlns="http://www.w3.org/2000/svg">
<g clip-path="url(#clip0_46_480)">
<rect width="241" height="57" fill="white"/>
<g clip-path="url(#clip1_46_480)">
<path fill-rule="evenodd" clip-rule="evenodd" d="M34.7 56.5L57.5999 16.8L43.5999 16.6V22H49L39.7 37.5C39.9 26.5 40.2 15.8 40.4 4.9H58.4L54 13.1H59.7999L67.3 0H34.7V56.5Z" fill="#BD9539"/>
<path fill-rule="evenodd" clip-rule="evenodd" d="M32.6 0H0L7.5 13.1H13.6L9.3 4.9H27.5V14.1L27.6 16.6H9.6L32.6 56.5V0ZM25.6 34.2L25.1 33.4L18.3 22.1H27.6V37.6L25.6 34.2Z" fill="black"/>
<path fill-rule="evenodd" clip-rule="evenodd" d="M109.3 24.2H122C122.1 26.4 121.9 28.2 121.5 29.6C121 31.3 120.1 32.9 118.8 34.3C117.4 35.8 115.7 37 113.7 37.8C111.7 38.6 109.6 39.1 107.5 39.1C103.2 39.1 99.5 37.7 96.4 34.8C93.3 31.9 91.8 28.4 91.8 24.4C91.8 20.2 93.3 16.7 96.4 13.8C99.5 10.9 103.3 9.5 107.7 9.5C112.9 9.5 117.2 11.6 120.6 15.7L118.1 17.9C115.4 14.3 111.9 12.5 107.6 12.5C104.1 12.5 101.2 13.7 98.7 16C96.3 18.3 95.1 21.2 95.1 24.4C95.1 27.5 96.3 30.2 98.7 32.6C101.1 35 104 36.1 107.3 36.1C110.1 36.1 112.6 35.3 114.8 33.6C117.1 31.9 118.2 29.7 118.2 27.1H109.1V24.2H109.3ZM83.8 27.9L78.7 16.4L73.4 27.9H83.8ZM85.1 30.9H72L68.4 39H64.7L78.8 9L92.5 39H88.8L85.1 30.9Z" fill="black"/>
<path fill-rule="evenodd" clip-rule="evenodd" d="M228.6 12.6V22.8H230.9C235.5 22.8 237.9 21.1 237.9 17.6C237.9 15.5 237.1 14.1 235.4 13.3C234.3 12.8 232.4 12.5 229.9 12.5H228.6V12.6ZM228.6 25.7V38.2H225.2V9.59995H230.2C233.7 9.59995 236.2 10.1 237.8 11.1C240.1 12.6 241.2 14.8 241.2 17.6C241.2 20.3 240.2 22.4 238.2 23.8C236.4 25 234.1 25.7 231 25.7H228.6ZM199.3 9.59995V26.7C199.3 28.3 199.3 29.4 199.4 30C199.8 32.4 201.1 34.0999 203.4 35.0999C204.5 35.5999 205.6 35.7999 206.8 35.7999C209.3 35.7999 211.3 34.9999 212.8 33.2999C213.5 32.4999 213.9 31.5 214.1 30.2C214.2 29.5 214.3 28.4 214.3 26.7V9.59995H217.7V27.5C217.7 29.3 217.6 30.6999 217.3 31.7999C216.9 33.1999 216.2 34.4 215.1 35.5C212.9 37.7 210.1 38.7999 206.9 38.7999C203.8 38.7999 201.2 37.8 199 35.9C197.8 34.8 196.9 33.4999 196.5 32.0999C196.2 31.0999 196 29.6 196 27.7V9.59995H199.3ZM175.9 12.6V22.9H177C182.2 22.9 184.7 21.2 184.7 17.8C184.7 15.6 183.9 14.2 182.4 13.4C181.3 12.9 179.5 12.6 177 12.6H175.9ZM175.9 25.7V38.2999H172.5V9.59995H176.9C184.4 9.59995 188.1 12.2 188.1 17.5C188.1 19.7 187.4 21.6 186 23C184.6 24.4 182.8 25.2 180.4 25.4L190.1 38.2H186L176.8 25.6H175.9V25.7ZM153.6 23.9H166.3C166.4 26.1 166.2 27.8999 165.8 29.2999C165.3 30.9999 164.4 32.6 163.1 34C161.7 35.5 160 36.7 158 37.5C156 38.3 153.9 38.7999 151.8 38.7999C147.5 38.7999 143.8 37.4 140.7 34.5C137.6 31.6 136.1 28.1 136.1 24.1C136.1 19.9 137.6 16.4 140.7 13.5C143.8 10.6 147.6 9.19995 152 9.19995C157.2 9.19995 161.5 11.3 164.9 15.4L162.4 17.6C159.7 14 156.2 12.2 151.9 12.2C148.4 12.2 145.5 13.4 143 15.7C140.6 18 139.4 20.9 139.4 24.1C139.4 27.2 140.6 29.8999 143 32.2999C145.4 34.6999 148.3 35.7999 151.6 35.7999C154.4 35.7999 156.9 34.9999 159.1 33.2999C161.4 31.5999 162.5 29.3999 162.5 26.7999H153.4V23.9H153.6Z" fill="black"/>
<path fill-rule="evenodd" clip-rule="evenodd" d="M238.7 50.8V49.4H239.8V50.8H238.7ZM236.8 44.2V43.2H237.5V44.2H236.8ZM236.7 50.8V44.9H237.7V50.8H236.7ZM234.8 46.1V50.8H233.8V46.1H232.4V44.9H236.3V46.1H234.8ZM229.1 52.5L229.2 52.1C229.3 52.1 229.3 52.1 229.4 52.2C229.5 52.2 229.5 52.2 229.6 52.3C229.7 52.3 229.8 52.3 229.9 52.3C230 52.3 230.1 52.3 230.1 52.2C230.1 52.1 230.2 52.1 230.2 52C230.2 51.9 230.2 51.9 230.1 51.8C230.1 51.7 230 51.7 229.9 51.7H229.8H229.7L229.5 51.5L229.8 50.7H230.2L230 51.2H230.1H230.2C230.3 51.2 230.5 51.3 230.6 51.4C230.7 51.5 230.7 51.7 230.7 51.9C230.7 52.2 230.6 52.3 230.5 52.5C230.4 52.6 230.2 52.7 229.9 52.7C229.8 52.7 229.8 52.7 229.7 52.7C229.6 52.7 229.6 52.7 229.5 52.7C229.4 52.6 229.3 52.6 229.1 52.5ZM227.8 48.8H228.9V48.9C228.9 49.2 229 49.5 229.2 49.7C229.4 49.9 229.7 50 230.1 50C230.4 50 230.6 49.9 230.8 49.8C231 49.7 231 49.5 231 49.3C231 49.1 230.9 49 230.8 48.9C230.7 48.8 230.5 48.7 230.1 48.7L229.4 48.6C228.9 48.5 228.5 48.3 228.2 48.1C227.9 47.8 227.8 47.5 227.8 47C227.8 46.4 228 45.9 228.3 45.6C228.7 45.2 229.1 45 229.7 45C230.3 45 230.8 45.2 231.2 45.5C231.6 45.8 231.8 46.3 231.8 46.9H230.8C230.8 46.6 230.7 46.4 230.5 46.2C230.3 46.1 230.1 46 229.8 46C229.5 46 229.3 46.1 229.1 46.2C228.9 46.3 228.9 46.5 228.9 46.7C228.9 46.9 228.9 47 229 47.1C229.1 47.2 229.3 47.3 229.7 47.3L230.5 47.4C231 47.5 231.4 47.7 231.7 47.9C231.9 48.2 232.1 48.6 232.1 49.1C232.1 49.8 231.9 50.3 231.5 50.6C231.1 50.9 230.6 51.1 229.9 51.1C229.2 51.1 228.7 50.9 228.3 50.6C227.9 50.2 227.7 49.7 227.7 49.1V48.8H227.8ZM223.8 50.8V49.4H224.9V50.8H223.8ZM220.5 44.9C221 44.9 221.3 44.9 221.5 45C221.7 45.1 221.9 45.2 222.1 45.3C222.4 45.5 222.6 45.9 222.8 46.3C223 46.7 223.1 47.3 223.1 47.9C223.1 48.5 223 49 222.9 49.4C222.7 49.8 222.5 50.2 222.2 50.4C222 50.5 221.8 50.6 221.6 50.7C221.4 50.8 221 50.8 220.6 50.8H218.7V44.9H220.5ZM219.7 46.1V49.6H220.5C221 49.6 221.3 49.5 221.6 49.2C221.8 48.9 222 48.5 222 47.9C222 47.3 221.9 46.9 221.6 46.6C221.4 46.3 221 46.2 220.5 46.2H219.7V46.1ZM216.8 46.1V50.8H215.8V46.1H214.4V44.9H218.3V46.1H216.8ZM211.5 50.8V44.9H212.5V49.6H214.6V50.8H211.5ZM207.4 50.8V49.4H208.5V50.8H207.4ZM206.6 48.5C206.5 49.2 206.3 49.8 205.9 50.3C205.5 50.7 204.9 51 204.2 51C203.4 51 202.8 50.7 202.4 50.2C201.9 49.6 201.7 48.9 201.7 47.9C201.7 47 201.9 46.2 202.4 45.6C202.9 45 203.5 44.7 204.2 44.7C204.9 44.7 205.4 44.9 205.8 45.3C206.2 45.7 206.5 46.3 206.5 47H205.4C205.3 46.6 205.2 46.4 205 46.2C204.8 46 204.5 45.9 204.2 45.9C203.8 45.9 203.5 46.1 203.2 46.4C203 46.7 202.8 47.2 202.8 47.8C202.8 48.4 202.9 48.8 203.2 49.2C203.4 49.5 203.8 49.7 204.2 49.7C204.6 49.7 204.8 49.6 205.1 49.4C205.3 49.2 205.4 48.9 205.5 48.5H206.6ZM200.2 44.2V43.2H200.9V44.2H200.2ZM200 50.8V44.9H201V50.8H200ZM198.1 46.1V50.8H197.1V46.1H195.7V44.9H199.6V46.1H198.1ZM192 50.8V49.4H193.1V50.8H192ZM186.7 50.8V44.9H188L190.1 49.1V44.9H191.1V50.8H189.8L187.7 46.6V50.8H186.7ZM181.6 50.8L183.6 44.9H184.6L186.5 50.8H185.3L184.9 49.5H183.1L182.7 50.8H181.6ZM183.5 48.4H184.6L184 46.6L183.5 48.4ZM177.2 48.8H178.3V48.9C178.3 49.2 178.4 49.5 178.6 49.7C178.8 49.9 179.1 50 179.5 50C179.8 50 180 49.9 180.2 49.8C180.4 49.7 180.4 49.5 180.4 49.3C180.4 49.1 180.3 49 180.2 48.9C180.1 48.8 179.9 48.7 179.5 48.7L178.8 48.6C178.3 48.5 177.9 48.3 177.6 48.1C177.3 47.8 177.2 47.5 177.2 47C177.2 46.4 177.4 45.9 177.7 45.6C178.1 45.2 178.5 45 179.1 45C179.7 45 180.2 45.2 180.6 45.5C181 45.8 181.2 46.3 181.2 46.9H180.2C180.2 46.6 180.1 46.4 179.9 46.2C179.7 46.1 179.5 46 179.2 46C178.9 46 178.7 46.1 178.5 46.2C178.3 46.3 178.3 46.5 178.3 46.7C178.3 46.9 178.3 47 178.4 47.1C178.5 47.2 178.7 47.3 179.1 47.3L179.9 47.4C180.4 47.5 180.8 47.7 181.1 47.9C181.3 48.2 181.5 48.6 181.5 49.1C181.5 49.8 181.3 50.3 180.9 50.6C180.5 50.9 180 51.1 179.3 51.1C178.6 51.1 178.1 50.9 177.7 50.6C177.3 50.2 177.1 49.7 177.1 49.1V48.8H177.2ZM173.4 44.2V43.2H174.1V44.2H173.4ZM173.3 50.8V44.9H174.3V50.8H173.3ZM168.4 50.8V44.9H170.9C171.5 44.9 171.9 45 172.1 45.3C172.4 45.6 172.5 46 172.5 46.5C172.5 46.8 172.4 47.1 172.3 47.4C172.2 47.7 172 47.9 171.8 48C172 48.1 172.1 48.2 172.2 48.4C172.2 48.5 172.3 48.6 172.3 48.7C172.3 48.8 172.3 49 172.3 49.2V49.4C172.3 49.8 172.3 50.1 172.4 50.3C172.4 50.5 172.5 50.7 172.6 50.8H171.4C171.4 50.7 171.4 50.7 171.3 50.6V50.5V50.4V50C171.3 49.5 171.3 49.1 171.2 48.9C171.1 48.7 170.9 48.6 170.6 48.6H169.4V50.8H168.4ZM169.4 47.4H170.6C170.9 47.4 171.1 47.3 171.3 47.2C171.4 47.1 171.5 46.9 171.5 46.7C171.5 46.5 171.4 46.3 171.3 46.2C171.2 46.1 170.9 46.1 170.6 46.1H169.5V47.4H169.4ZM164 50.8V44.9H167.7V46.1H165V47.1H167.4V48.3H165V49.6H167.6V50.8H164ZM160.2 50.8V44.9H161.2V49.6H163.3V50.8H160.2ZM155.8 50.8V44.9H159.5V46.1H156.9V47.1H159.3V48.3H156.9V49.6H159.5V50.8H155.8ZM149.5 50.8V44.9H150.8L152.1 49.1L153.5 44.9H154.8V50.8H153.8V46.8L152.5 50.8H151.6L150.4 46.8V50.8H149.5ZM145.2 50.8V44.9H148.9V46.1H146.3V47.1H148.7V48.3H146.3V49.6H148.9V50.8H145.2ZM140.4 50.8V49.5L143.1 46.1H140.5V44.9H144.6V46.1L141.9 49.6H144.6V50.8H140.4ZM136.9 50.8V44.9H137.9V49.6H140V50.8H136.9ZM131.7 50.8L133.7 44.9H134.7L136.6 50.8H135.4L135 49.5H133.2L132.8 50.8H131.7ZM133.6 48.4H134.7L134.1 46.6L133.6 48.4ZM126.1 50.8V44.9H127.4L128.7 49.1L130.1 44.9H131.4V50.8H130.4V46.8L129.1 50.8H128.2L127 46.8V50.8H126.1ZM122.2 46.1V50.8H121.2V46.1H119.8V44.9H123.7V46.1H122.2ZM115.4 50.8L117.4 44.9H118.4L120.3 50.8H119.1L118.7 49.5H116.9L116.5 50.8H115.4ZM117.2 48.4H118.3L117.7 46.6L117.2 48.4ZM110.5 50.8L112.5 44.9H113.5L115.4 50.8H114.2L113.8 49.5H112L111.6 50.8H110.5ZM112.4 48.4H113.5L112.9 46.6L112.4 48.4ZM107.4 52.5L107.5 52.1C107.6 52.1 107.6 52.1 107.7 52.2C107.8 52.2 107.8 52.2 107.9 52.3C108 52.3 108.1 52.3 108.2 52.3C108.3 52.3 108.4 52.3 108.4 52.2C108.4 52.1 108.5 52.1 108.5 52C108.5 51.9 108.5 51.9 108.4 51.8C108.4 51.7 108.3 51.7 108.2 51.7H108.1H108L107.8 51.5L108.1 50.7H108.5L108.3 51.2H108.4H108.5C108.6 51.2 108.8 51.3 108.9 51.4C109 51.5 109 51.7 109 51.9C109 52.2 108.9 52.3 108.8 52.5C108.7 52.6 108.5 52.7 108.2 52.7C108.1 52.7 108.1 52.7 108 52.7C107.9 52.7 107.9 52.7 107.8 52.7C107.8 52.6 107.6 52.6 107.4 52.5ZM106.1 48.8H107.2V48.9C107.2 49.2 107.3 49.5 107.5 49.7C107.7 49.9 108 50 108.4 50C108.7 50 108.9 49.9 109.1 49.8C109.3 49.7 109.3 49.5 109.3 49.3C109.3 49.1 109.2 49 109.1 48.9C109 48.8 108.8 48.7 108.4 48.7L107.7 48.6C107.2 48.5 106.8 48.3 106.5 48.1C106.2 47.8 106.1 47.5 106.1 47C106.1 46.4 106.3 45.9 106.6 45.6C107 45.2 107.4 45 108 45C108.6 45 109.1 45.2 109.5 45.5C109.9 45.8 110.1 46.3 110.1 46.9H109.1C109.1 46.6 109 46.4 108.8 46.2C108.6 46.1 108.4 46 108.1 46C107.8 46 107.6 46.1 107.4 46.2C107.2 46.3 107.2 46.5 107.2 46.7C107.2 46.9 107.2 47 107.3 47.1C107.4 47.2 107.6 47.3 108 47.3L108.8 47.4C109.3 47.5 109.7 47.7 110 47.9C110.2 48.2 110.4 48.6 110.4 49.1C110.4 49.8 110.2 50.3 109.8 50.6C109.4 50.9 108.9 51.1 108.2 51.1C107.5 51.1 107 50.9 106.6 50.6C106.2 50.2 106 49.7 106 49.1V48.8H106.1ZM101 50.8V44.9H102.3L104.4 49.1V44.9H105.4V50.8H104.1L102 46.6V50.8H101ZM99.2 44.2V43.2H99.9V44.2H99.2ZM99 50.8V44.9H100V50.8H99ZM95.1 46.1V50.8H94.1V46.1H92.7V44.9H96.6V46.1H95.1ZM89.8 44.2H88.9V43.1H89.8V44.2ZM91.3 44.2H90.4V43.1H91.3V44.2ZM89 44.9V48.1C89 48.7 89.1 49.1 89.3 49.4C89.5 49.7 89.7 49.8 90.1 49.8C90.3 49.8 90.5 49.8 90.6 49.7C90.8 49.6 90.9 49.5 91 49.3C91.1 49.2 91.1 49 91.2 48.9C91.2 48.7 91.2 48.5 91.2 48.2V45H92.2V48.3C92.2 49.2 92 49.9 91.7 50.3C91.3 50.8 90.7 51 90 51C89.3 51 88.8 50.8 88.4 50.3C88 49.8 87.9 49.2 87.9 48.3V45H89V44.9ZM82.9 50.8V44.9H83.9V47.1H85.9V44.9H86.9V50.8H85.9V48.3H83.9V50.8H82.9ZM77.9 50.8V44.9H78.9V47.1H80.9V44.9H81.9V50.8H80.9V48.3H78.9V50.8H77.9ZM72.8 50.8L74.8 44.9H75.8L77.7 50.8H76.5L76.1 49.5H74.3L73.9 50.8H72.8ZM74.7 48.4H75.8L75.2 46.6L74.7 48.4ZM68 50.8L70 44.9H71L72.9 50.8H71.7L71.3 49.5H69.5L69.1 50.8H68ZM69.8 48.4H70.9L70.3 46.6L69.8 48.4ZM67.1 46.1V50.8H66.1V46.1H64.7V44.9H68.6V46.1H67.1Z" fill="black"/>
</g>
</g>
<defs>
<clipPath id="clip0_46_480">
<rect width="241" height="57" fill="white"/>
</clipPath>
<clipPath id="clip1_46_480">
<rect width="243.2" height="58.5" fill="white" transform="translate(0 -2)"/>
</clipPath>
</defs>
</svg>
